<svg xmlns:mydata="http://www.w3.org/2000/svg" mydata:contrastcolor="330072" mydata:template="BlackAndHighlightColorHex2" mydata:presentation="2.5" mydata:layouttype="undefined" mydata:specialfontid="undefined" mydata:id1="385" mydata:id2="946" mydata:companyname="Royal" mydata:companytagline="" version="1.1" xmlns="http://www.w3.org/2000/svg" xmlns:xlink="http://www.w3.org/1999/xlink" viewBox="77.86601791366436 192.66881386753303 394.26796417267144 84.66237226493402" class="vertical-center watermark-logo" width="664"  height="143" >
    <g fill="none" fill-rule="none" stroke="none" stroke-width="1" stroke-linecap="butt" stroke-linejoin="miter" stroke-miterlimit="10" stroke-dasharray="" stroke-dashoffset="0" font-family="none" font-weight="none" font-size="none" text-anchor="none" style="mix-blend-mode: normal">
        <g data-paper-data="{&quot;isGlobalGroup&quot;:true,&quot;bounds&quot;:{&quot;x&quot;:77.86601791366436,&quot;y&quot;:192.66881386753303,&quot;width&quot;:394.26796417267144,&quot;height&quot;:84.66237226493402}}" fill="none">
            <g data-paper-data="{&quot;isPrimaryText&quot;:true}" fill="none">
                <path d="M195.80541,277.33119c7.21198,0 13.93402,-1.90098 20.16611,-5.70295c6.23209,-3.80197 11.15113,-8.95618 14.75712,-15.46264c3.60599,-6.42807 5.40898,-13.48327 5.40898,-21.16559c0,-7.60394 -1.80299,-14.65913 -5.40898,-21.16559c-3.60599,-6.50646 -8.50543,-11.68027 -14.69833,-15.52143c-6.27129,-3.76277 -13.01292,-5.64416 -20.2249,-5.64416c-7.29037,0 -14.032,1.88139 -20.2249,5.64416c-6.1929,3.76277 -11.09234,8.89739 -14.69833,15.40385c-3.60599,6.42807 -5.40898,13.52246 -5.40898,21.28318c0,7.68233 1.80299,14.75712 5.40898,21.22439c3.60599,6.46726 8.50543,11.58228 14.69833,15.34505c6.1929,3.84116 12.93453,5.76174 20.2249,5.76174zM195.80541,210.30681c3.99795,0 7.76072,1.11707 11.28832,3.35122c3.5276,2.23415 6.31048,5.2326 8.34865,8.99538c2.03817,3.84116 3.05725,7.9567 3.05725,12.3466c0,4.46829 -0.99949,8.56423 -2.99846,12.2878c-1.99897,3.72358 -4.76226,6.72204 -8.28986,8.99538c-3.60599,2.27334 -7.40796,3.41001 -11.4059,3.41001c-3.99795,0 -7.76072,-1.11707 -11.28832,-3.35122c-3.5276,-2.23415 -6.31048,-5.2326 -8.34865,-8.99538c-2.03817,-3.84116 -3.05725,-7.9567 -3.05725,-12.3466c0,-4.46829 1.01908,-8.58382 3.05725,-12.3466c2.03817,-3.76277 4.82105,-6.78083 8.34865,-9.05417c3.37082,-2.19495 7.13359,-3.29243 11.28832,-3.29243z" data-paper-data="{&quot;glyphName&quot;:&quot;O&quot;,&quot;glyphIndex&quot;:1,&quot;word&quot;:1}" fill="#FFFFFF" fill-rule="nonzero" style=""></path>
                <path d="M302.69165,193.84468h21.40077l-29.16148,45.7412v36.56944h-17.63799v-36.45185l-29.39666,-45.85878h21.40077l16.81489,27.16251z" data-paper-data="{&quot;glyphName&quot;:&quot;Y&quot;,&quot;glyphIndex&quot;:2,&quot;word&quot;:1}" fill="#FFFFFF" fill-rule="nonzero" style=""></path>
                <path d="M361.13221,260.5163l-6.1145,15.63902h-19.16662l31.39563,-82.31064h16.6973l31.39563,82.31064h-19.16662l-6.1145,-15.63902zM367.95223,242.76072h15.28626l-7.64313,-21.40077z" data-paper-data="{&quot;glyphName&quot;:&quot;A&quot;,&quot;glyphIndex&quot;:3,&quot;word&quot;:1}" fill="#FFFFFF" fill-rule="nonzero" style=""></path>
                <path d="M472.13398,258.39974v17.75558h-45.03568v-82.31064h17.63799v64.55506z" data-paper-data="{&quot;glyphName&quot;:&quot;L&quot;,&quot;glyphIndex&quot;:4,&quot;lastGlyphOfWord&quot;:true,&quot;word&quot;:1}" fill="#FFFFFF" fill-rule="nonzero" style=""></path>
                <g data-paper-data="{&quot;initialText&quot;:&quot;R&quot;,&quot;fillRule&quot;:&quot;nonzero&quot;,&quot;selectedEffects&quot;:{&quot;container&quot;:&quot;&quot;,&quot;transformation&quot;:&quot;&quot;,&quot;pattern&quot;:&quot;&quot;},&quot;bounds&quot;:{&quot;x&quot;:77.86601791366436,&quot;y&quot;:193.84468014899048,&quot;width&quot;:65.84851176161524,&quot;height&quot;:82.3093897112872},&quot;isIcon&quot;:&quot;true&quot;,&quot;iconType&quot;:&quot;initial&quot;,&quot;iconStyle&quot;:&quot;icon-in-text&quot;,&quot;rawInitialId&quot;:678,&quot;line&quot;:1,&quot;iconInPrimaryText&quot;:true,&quot;suitableAsStandaloneIcon&quot;:true}" fill-rule="evenodd" fill="none">
                    <g data-paper-data="{&quot;isPathIcon&quot;:true}" fill="none">
                        <path d="M124.95467,193.89868c-0.096,-0.019 -0.193,-0.037 -0.29,-0.054h0.236z" fill="#FFFFFF" style=""></path>
                        <path d="M124.95467,193.89868l0.063,0.063c4.11597,1.52899 7.40795,4.58597 9.99493,9.28993c2.46898,4.34997 3.64497,8.70094 3.64497,13.0519v1.17599c-0.117,3.64497 -1.05799,6.81995 -2.93898,9.52393c-1.88199,2.70498 -4.35097,4.58597 -7.29095,5.87896c-2.70398,1.29399 -5.76096,1.88199 -9.05393,1.88199h-0.588c-12.8169,-0.353 -25.63351,-1.05799 -38.56791,-2.23398l46.21086,43.62368h11.05292l-36.45073,-33.86475h11.52291c11.75891,0 19.87185,-2.46898 24.45782,-7.28995c4.46797,-4.93896 6.70295,-10.93592 6.70295,-17.99087c0,-4.11497 -0.82399,-7.87794 -2.58698,-11.28792c-1.64699,-3.40997 -3.88097,-6.11495 -6.58495,-7.99594c-2.63698,-1.83399 -5.83296,-3.10998 -9.58793,-3.82597z" fill="#FFFFFF" style=""></path>
                        <path d="M82.56948,204.6626l-4.70347,-8.11394h33.39475c4.58597,0 7.99594,0.235 10.46492,0.70599h0.353c2.70398,0.82299 4.93796,2.35098 6.81995,4.58597c1.88099,2.23398 3.17398,4.70297 3.99797,7.40795c0.587,1.99799 0.82299,3.99697 0.82299,5.99596c0,0.82399 0,1.52899 -0.118,2.35198c-0.353,2.93998 -1.17599,5.40896 -2.70398,7.40795c-1.52899,1.99899 -3.40997,3.52797 -5.76196,4.58597c-2.35198,1.05799 -5.05596,1.52899 -7.99594,1.64599c-1.29299,0 -2.82198,0 -4.58597,-0.117c-5.40896,-0.118 -13.4047,-0.588 -23.98742,-1.41099c-1.41099,-0.118 -2.58688,-0.236 -3.40997,-0.353h27.0444c5.87996,0 10.11293,-1.05799 12.58191,-3.29298c2.46898,-2.23398 3.64497,-5.29096 3.64497,-9.28893c0,-2.93998 -0.70499,-5.40896 -2.23398,-7.40795c-1.41099,-1.99899 -3.29198,-3.40997 -5.64396,-4.11497c-1.52899,-0.353 -4.46797,-0.588 -8.58394,-0.588z" fill="#FFFFFF" style=""></path>
                    </g>
                </g>
            </g>
        </g>
    </g>
</svg>
