<svg xmlns:xlink="http://www.w3.org/1999/xlink" xmlns="http://www.w3.org/2000/svg" class="svg-standalone-icon" width="35" viewBox="77.86601791366436 193.84468014899048 65.84851176161524 82.3093897112872" height="43.74933560114808" ><g data-paper-data="{&quot;initialText&quot;:&quot;R&quot;,&quot;fillRule&quot;:&quot;nonzero&quot;,&quot;selectedEffects&quot;:{&quot;container&quot;:&quot;&quot;,&quot;transformation&quot;:&quot;&quot;,&quot;pattern&quot;:&quot;&quot;},&quot;bounds&quot;:{&quot;x&quot;:77.86601791366436,&quot;y&quot;:193.84468014899048,&quot;width&quot;:65.84851176161524,&quot;height&quot;:82.3093897112872},&quot;isIcon&quot;:&quot;true&quot;,&quot;iconType&quot;:&quot;initial&quot;,&quot;iconStyle&quot;:&quot;icon-in-text&quot;,&quot;rawInitialId&quot;:678,&quot;line&quot;:1,&quot;iconInPrimaryText&quot;:true,&quot;suitableAsStandaloneIcon&quot;:true}" fill-rule="nonzero"><g data-paper-data="{&quot;isPathIcon&quot;:true}"><path d="M124.95467,193.89868c-0.096,-0.019 -0.193,-0.037 -0.29,-0.054h0.236z" fill="#ffffff" style="fill: rgb(0, 0, 0);"></path><path d="M124.95467,193.89868l0.063,0.063c4.11597,1.52899 7.40795,4.58597 9.99493,9.28993c2.46898,4.34997 3.64497,8.70094 3.64497,13.0519v1.17599c-0.117,3.64497 -1.05799,6.81995 -2.93898,9.52393c-1.88199,2.70498 -4.35097,4.58597 -7.29095,5.87896c-2.70398,1.29399 -5.76096,1.88199 -9.05393,1.88199h-0.588c-12.8169,-0.353 -25.63351,-1.05799 -38.56791,-2.23398l46.21086,43.62368h11.05292l-36.45073,-33.86475h11.52291c11.75891,0 19.87185,-2.46898 24.45782,-7.28995c4.46797,-4.93896 6.70295,-10.93592 6.70295,-17.99087c0,-4.11497 -0.82399,-7.87794 -2.58698,-11.28792c-1.64699,-3.40997 -3.88097,-6.11495 -6.58495,-7.99594c-2.63698,-1.83399 -5.83296,-3.10998 -9.58793,-3.82597z" fill="#b2b4b2" style="fill: rgb(0, 0, 0);"></path><path d="M82.56948,204.6626l-4.70347,-8.11394h33.39475c4.58597,0 7.99594,0.235 10.46492,0.70599h0.353c2.70398,0.82299 4.93796,2.35098 6.81995,4.58597c1.88099,2.23398 3.17398,4.70297 3.99797,7.40795c0.587,1.99799 0.82299,3.99697 0.82299,5.99596c0,0.82399 0,1.52899 -0.118,2.35198c-0.353,2.93998 -1.17599,5.40896 -2.70398,7.40795c-1.52899,1.99899 -3.40997,3.52797 -5.76196,4.58597c-2.35198,1.05799 -5.05596,1.52899 -7.99594,1.64599c-1.29299,0 -2.82198,0 -4.58597,-0.117c-5.40896,-0.118 -13.4047,-0.588 -23.98742,-1.41099c-1.41099,-0.118 -2.58688,-0.236 -3.40997,-0.353h27.0444c5.87996,0 10.11293,-1.05799 12.58191,-3.29298c2.46898,-2.23398 3.64497,-5.29096 3.64497,-9.28893c0,-2.93998 -0.70499,-5.40896 -2.23398,-7.40795c-1.41099,-1.99899 -3.29198,-3.40997 -5.64396,-4.11497c-1.52899,-0.353 -4.46797,-0.588 -8.58394,-0.588z" fill="#ffffff" style="fill: rgb(0, 0, 0);"></path></g></g></svg>